<mxfile host="app.diagrams.net" modified="2024-07-09T09:59:16.724Z" agent="Mozilla/5.0 (Macintosh; Intel Mac OS X 10_15_7) AppleWebKit/605.1.15 (KHTML, like Gecko) Version/17.5 Safari/605.1.15" etag="F_hWIBoKtOxFhNpahzpm" version="24.6.4" type="device">
  <diagram name="Page-1" id="JzOKHiW9dGkAq-V41V1e">
    <mxGraphModel dx="1818" dy="1158" grid="1" gridSize="10" guides="1" tooltips="1" connect="1" arrows="1" fold="1" page="1" pageScale="1" pageWidth="827" pageHeight="1169" math="0" shadow="0">
      <root>
        <mxCell id="0" />
        <mxCell id="1" parent="0" />
        <mxCell id="K7yHzfW4WV1s8q2YCmYE-11" style="edgeStyle=orthogonalEdgeStyle;rounded=0;orthogonalLoop=1;jettySize=auto;html=1;endArrow=ERmany;endFill=0;" edge="1" parent="1" source="K7yHzfW4WV1s8q2YCmYE-2" target="K7yHzfW4WV1s8q2YCmYE-5">
          <mxGeometry relative="1" as="geometry">
            <Array as="points">
              <mxPoint x="200" y="170" />
              <mxPoint x="200" y="210" />
            </Array>
          </mxGeometry>
        </mxCell>
        <mxCell id="K7yHzfW4WV1s8q2YCmYE-2" value="Practitioner" style="shape=umlActor;verticalLabelPosition=bottom;verticalAlign=top;html=1;outlineConnect=0;" vertex="1" parent="1">
          <mxGeometry x="60" y="140" width="30" height="60" as="geometry" />
        </mxCell>
        <mxCell id="K7yHzfW4WV1s8q2YCmYE-10" style="edgeStyle=orthogonalEdgeStyle;rounded=0;orthogonalLoop=1;jettySize=auto;html=1;entryX=0.5;entryY=0;entryDx=0;entryDy=0;" edge="1" parent="1" source="K7yHzfW4WV1s8q2YCmYE-3" target="K7yHzfW4WV1s8q2YCmYE-5">
          <mxGeometry relative="1" as="geometry" />
        </mxCell>
        <mxCell id="K7yHzfW4WV1s8q2YCmYE-3" value="&lt;div style=&quot;text-align: start;&quot;&gt;&lt;div&gt;Uzi Credential&lt;/div&gt;&lt;div&gt;&lt;/div&gt;&lt;div&gt;&lt;/div&gt;&lt;/div&gt;&lt;div style=&quot;text-align: start;&quot;&gt;&lt;div&gt;&lt;/div&gt;&lt;/div&gt;" style="shape=note;whiteSpace=wrap;html=1;backgroundOutline=1;darkOpacity=0.05;" vertex="1" parent="1">
          <mxGeometry x="170" y="50" width="140" height="50" as="geometry" />
        </mxCell>
        <mxCell id="K7yHzfW4WV1s8q2YCmYE-5" value="&lt;div style=&quot;text-align: start;&quot;&gt;PractitionerRole&lt;/div&gt;&lt;div style=&quot;text-align: start;&quot;&gt;&lt;div&gt;&lt;/div&gt;&lt;/div&gt;" style="rounded=0;whiteSpace=wrap;html=1;" vertex="1" parent="1">
          <mxGeometry x="310" y="190" width="120" height="40" as="geometry" />
        </mxCell>
        <mxCell id="K7yHzfW4WV1s8q2YCmYE-13" style="edgeStyle=orthogonalEdgeStyle;rounded=0;orthogonalLoop=1;jettySize=auto;html=1;entryX=0.5;entryY=1;entryDx=0;entryDy=0;endArrow=ERmany;endFill=0;" edge="1" parent="1" source="K7yHzfW4WV1s8q2YCmYE-6" target="K7yHzfW4WV1s8q2YCmYE-5">
          <mxGeometry relative="1" as="geometry" />
        </mxCell>
        <mxCell id="K7yHzfW4WV1s8q2YCmYE-6" value="&lt;div style=&quot;text-align: start;&quot;&gt;Organization&lt;br&gt;&lt;/div&gt;&lt;div style=&quot;text-align: start;&quot;&gt;&lt;div&gt;&lt;/div&gt;&lt;/div&gt;" style="rounded=0;whiteSpace=wrap;html=1;" vertex="1" parent="1">
          <mxGeometry x="310" y="260" width="120" height="40" as="geometry" />
        </mxCell>
        <mxCell id="K7yHzfW4WV1s8q2YCmYE-7" value="&lt;div style=&quot;text-align: start;&quot;&gt;&lt;div&gt;Ura Credential&lt;br&gt;&lt;/div&gt;&lt;div&gt;&lt;/div&gt;&lt;div&gt;&lt;/div&gt;&lt;/div&gt;&lt;div style=&quot;text-align: start;&quot;&gt;&lt;div&gt;&lt;/div&gt;&lt;/div&gt;" style="shape=note;whiteSpace=wrap;html=1;backgroundOutline=1;darkOpacity=0.05;" vertex="1" parent="1">
          <mxGeometry x="180" y="320" width="140" height="50" as="geometry" />
        </mxCell>
        <mxCell id="K7yHzfW4WV1s8q2YCmYE-8" style="edgeStyle=orthogonalEdgeStyle;rounded=0;orthogonalLoop=1;jettySize=auto;html=1;entryX=0.5;entryY=0;entryDx=0;entryDy=0;entryPerimeter=0;dashed=1;dashPattern=12 12;" edge="1" parent="1" source="K7yHzfW4WV1s8q2YCmYE-6" target="K7yHzfW4WV1s8q2YCmYE-7">
          <mxGeometry relative="1" as="geometry" />
        </mxCell>
        <mxCell id="K7yHzfW4WV1s8q2YCmYE-12" style="edgeStyle=orthogonalEdgeStyle;rounded=0;orthogonalLoop=1;jettySize=auto;html=1;entryX=0;entryY=0.5;entryDx=0;entryDy=0;entryPerimeter=0;dashed=1;dashPattern=8 8;" edge="1" parent="1" source="K7yHzfW4WV1s8q2YCmYE-2" target="K7yHzfW4WV1s8q2YCmYE-3">
          <mxGeometry relative="1" as="geometry" />
        </mxCell>
      </root>
    </mxGraphModel>
  </diagram>
</mxfile>
